<svg width="79" height="31" viewBox="0 0 79 31" fill="none" xmlns="http://www.w3.org/2000/svg">
<path d="M14.8507 14.8966L14.3486 13.3721C14.1419 13.548 13.752 13.9233 13.8466 14.3689C13.9411 14.8145 14.5554 14.9455 14.8507 14.8966Z" stroke="black" stroke-width="0.157657"/>
<path d="M17.2428 17.7994L16.6816 16.1869C17.0787 16.1063 17.8164 16.349 17.863 16.9492C17.8964 17.3804 17.4987 17.7017 17.2428 17.7994Z" stroke="black" stroke-width="0.157657"/>
<path d="M13.965 1L1 6.27731L1.85646 10.3526L3.48077 14.3106L5.90248 18.7083L8.56046 22.3145L10.6573 24.5427L13.3448 23.9563L12.0158 22.3145L10.864 20.2622L10.0076 18.4151L9.03298 15.1901L8.56046 12.141L8.44232 10.3526L17.9815 5.89617L17.6566 3.11092L8.56046 7.47937L5.48902 8.88665C5.27638 9.67086 5.57762 11.6957 5.75482 12.5808L6.16828 14.6037L6.81801 16.5388L7.49727 18.0047L8.20606 19.324L10.5096 23.2527C9.83038 22.3047 7.67446 19.6758 5.75482 15.3953C5.57762 14.8969 5.06374 13.1261 4.42583 10.1473V8.53483L14.408 3.81457L13.965 1Z" stroke="black" stroke-width="0.157657"/>
<path d="M13.965 1L1 6.27731L1.85646 10.3526L3.48077 14.3106L5.90248 18.7083L8.56046 22.3145L10.6573 24.5427L13.3448 23.9563L12.0158 22.3145L10.864 20.2622L10.0076 18.4151L9.03298 15.1901L8.56046 12.141L8.44232 10.3526L17.9815 5.89617L17.6566 3.11092L8.56046 7.47937L5.48902 8.88665C5.27638 9.67086 5.57762 11.6957 5.75482 12.5808L6.16828 14.6037L6.81801 16.5388L7.49727 18.0047L8.20606 19.324L10.5096 23.2527C9.83038 22.3047 7.67446 19.6758 5.75482 15.3953C5.57762 14.8969 5.06374 13.1261 4.42583 10.1473V8.53483L14.408 3.81457L13.965 1Z" fill="#00A8DE" stroke="#00A8DE" stroke-width="0.157657"/>
<path d="M21.556 5.30957L9.18164 10.6748L9.27024 12.346L9.47697 13.5774L10.1858 16.8317L11.249 19.7049L12.4598 21.8745L13.8479 23.7508L16.2991 22.7247L18.0711 21.6986L19.9021 20.4672L21.4674 19.2358L21.2311 18.239L20.9948 16.9783L20.8177 15.1019V13.4894V12.4926L20.8767 11.4664L20.9948 9.38483L21.556 5.30957Z" stroke="black" stroke-width="0.157657"/>
<path d="M21.556 5.30957L9.18164 10.6748L9.27024 12.346L9.47697 13.5774L10.1858 16.8317L11.249 19.7049L12.4598 21.8745L13.8479 23.7508L16.2991 22.7247L18.0711 21.6986L19.9021 20.4672L21.4674 19.2358L21.2311 18.239L20.9948 16.9783L20.8177 15.1019V13.4894V12.4926L20.8767 11.4664L20.9948 9.38483L21.556 5.30957Z" fill="#2075F3" stroke="#2075F3" stroke-width="0.157657"/>
<path d="M14.9695 10.7637L13.6405 11.1448L13.9063 12.1123L13.5518 12.2882L13.227 12.5521C12.6954 12.9332 12.341 13.9887 12.4296 14.4871C12.6594 15.7799 13.1286 15.9027 13.5519 16.1289C13.9358 16.3342 14.8514 16.3928 15.3534 16.3635L15.9441 18.2399L15.5306 18.1812L15.0876 17.888L14.6151 17.5069L13.3156 17.8587L13.4042 18.0933C13.4042 18.3278 13.7586 18.709 14.0244 18.9728C14.2902 19.2367 14.2902 19.1781 15.0286 19.4419C15.6192 19.653 16.1607 19.5299 16.3575 19.4419L16.5643 20.1749L17.8933 19.7644L17.5979 19.0608C17.9523 19.0842 18.7989 18.3083 19.0745 17.9174C19.232 17.6144 19.4525 16.7505 19.0745 15.7185C18.6965 14.6865 17.0171 14.663 16.2689 14.7803L15.9735 13.9594L15.7374 13.0505L16.2689 13.2264L16.5937 13.5782L16.7119 13.7248C17.145 13.5978 17.9641 13.3202 18.0114 13.2264C18.0705 13.1091 17.4156 12.3418 17.3321 12.2589C17.2139 12.1416 16.6988 11.8598 16.4166 11.7898C16.1803 11.7312 15.5602 11.6725 15.2648 11.6725L14.9695 10.7637Z" stroke="black" stroke-width="0.157657"/>
<path d="M14.9695 10.7637L13.6405 11.1448L13.9063 12.1123L13.5518 12.2882L13.227 12.5521C12.6954 12.9332 12.341 13.9887 12.4296 14.4871C12.6594 15.7799 13.1286 15.9027 13.5519 16.1289C13.9358 16.3342 14.8514 16.3928 15.3534 16.3635L15.9441 18.2399L15.5306 18.1812L15.0876 17.888L14.6151 17.5069L13.3156 17.8587L13.4042 18.0933C13.4042 18.3278 13.7586 18.709 14.0244 18.9728C14.2902 19.2367 14.2902 19.1781 15.0286 19.4419C15.6192 19.653 16.1607 19.5299 16.3575 19.4419L16.5643 20.1749L17.8933 19.7644L17.5979 19.0608C17.9523 19.0842 18.7989 18.3083 19.0745 17.9174C19.232 17.6144 19.4525 16.7505 19.0745 15.7185C18.6965 14.6865 17.0171 14.663 16.2689 14.7803L15.9735 13.9594L15.7374 13.0505L16.2689 13.2264L16.5937 13.5782L16.7119 13.7248C17.145 13.5978 17.9641 13.3202 18.0114 13.2264C18.0705 13.1091 17.4156 12.3418 17.3321 12.2589C17.2139 12.1416 16.6988 11.8598 16.4166 11.7898C16.1803 11.7312 15.5602 11.6725 15.2648 11.6725L14.9695 10.7637Z" fill="white" stroke="white" stroke-width="0.157657"/>
<path d="M12.5476 9.7373L9.77148 10.9687L9.94868 12.6398L10.2145 14.2523C10.2539 13.4216 10.3403 11.8944 10.3917 11.6137C10.4507 11.2912 10.5393 11.2325 10.9233 10.91L12.5476 9.7373Z" stroke="black" stroke-width="0.157657"/>
<path d="M12.5476 9.7373L9.77148 10.9687L9.94868 12.6398L10.2145 14.2523C10.2539 13.4216 10.3403 11.8944 10.3917 11.6137C10.4507 11.2912 10.5393 11.2325 10.9233 10.91L12.5476 9.7373Z" fill="#609FFF" stroke="#609FFF" stroke-width="0.157657"/>
<path d="M17.4797 28.4425C17.0308 28.3956 15.8947 27.9734 15.3828 27.7682L17.3025 26.9473L18.0703 27.5336L17.4797 26.9473C18.277 26.4977 19.8718 25.5693 20.049 25.4813C20.1776 25.4175 22.4707 23.82 23.593 22.96L24.3609 23.605C24.857 24.1444 26.3297 24.592 26.9598 24.7484C26.5168 25.237 25.6067 26.2753 24.1246 27.1232C22.3821 28.12 21.8505 28.2959 20.5806 28.4425C19.3107 28.5891 18.0408 28.5011 17.4797 28.4425Z" stroke="black" stroke-width="0.157657"/>
<path d="M17.4797 28.4425C17.0308 28.3956 15.8947 27.9734 15.3828 27.7682L17.3025 26.9473L18.0703 27.5336L17.4797 26.9473C18.277 26.4977 19.8718 25.5693 20.049 25.4813C20.1776 25.4175 22.4707 23.82 23.593 22.96L24.3609 23.605C24.857 24.1444 26.3297 24.592 26.9598 24.7484C26.5168 25.237 25.6067 26.2753 24.1246 27.1232C22.3821 28.12 21.8505 28.2959 20.5806 28.4425C19.3107 28.5891 18.0408 28.5011 17.4797 28.4425Z" fill="#00A8DE" stroke="#00A8DE" stroke-width="0.157657"/>
<path d="M15.4997 29.9083C15.4406 29.9083 13.3438 29.9669 12.3692 30.1135C12.3692 30.1135 12.1624 30.1722 12.4578 30.2601C12.7531 30.3481 13.078 30.3481 13.078 30.3481L14.023 30.4067L17.2126 30.5826H22.7353C25.9012 30.5826 28.6419 30.4654 28.2284 30.2308C27.815 29.9962 25.9957 29.9083 25.6886 29.9083C25.3814 29.9083 23.3161 29.8497 22.3218 29.791H18.6006C18.6006 29.791 15.5588 29.9083 15.4997 29.9083Z" stroke="black" stroke-width="0.157657"/>
<path d="M15.4997 29.9083C15.4406 29.9083 13.3438 29.9669 12.3692 30.1135C12.3692 30.1135 12.1624 30.1722 12.4578 30.2601C12.7531 30.3481 13.078 30.3481 13.078 30.3481L14.023 30.4067L17.2126 30.5826H22.7353C25.9012 30.5826 28.6419 30.4654 28.2284 30.2308C27.815 29.9962 25.9957 29.9083 25.6886 29.9083C25.3814 29.9083 23.3161 29.8497 22.3218 29.791H18.6006C18.6006 29.791 15.5588 29.9083 15.4997 29.9083Z" fill="#E1E1E1" stroke="#EFEFEF" stroke-width="0.157657"/>
<path d="M4.33728 18.5318L4.54401 17.7989C3.87631 18.6028 3.52527 20.78 3.53989 20.7893C3.53989 20.7893 3.27017 21.9077 3.48082 23.3987C3.65733 24.6479 4.32862 25.5121 4.63261 25.7735C4.96732 26.1839 6.1657 26.9719 7.91078 27.7671C9.76427 28.6117 15.0283 26.9755 16.0028 26.653C16.9774 26.3305 22.4904 23.2693 23.2679 22.3139L25.6897 20.0564C26.6208 19.0087 28.6005 16.5939 29.0564 15.3654C29.5124 14.137 30.147 12.399 30.3559 11.5247L30.3564 11.5223C30.5654 10.6477 30.9125 9.19536 29.8538 7.24423C28.9107 5.5061 26.3886 4.63489 25.1581 4.45898C25.1581 4.45898 21.6732 4.51762 21.939 4.63489C22.2047 4.75217 26.6052 5.74899 27.7865 7.88924C28.9678 10.0295 27.3799 13.828 26.8414 14.4859C25.9445 15.8033 25.4111 16.4627 24.4197 17.535C23.1179 18.8642 22.3791 19.5446 21.0234 20.6134C19.5304 21.7851 18.6891 22.3214 17.1841 23.1641C17.213 23.1649 14.4451 24.4259 13.7288 24.6594C13.0124 24.8928 11.6024 25.2457 11.1594 25.3337C10.7164 25.4216 9.03303 25.3923 9.03303 25.3923C9.03303 25.3923 7.61543 25.363 6.72946 24.9525C5.84348 24.5421 5.48907 24.2196 5.48907 24.2196C5.01278 23.8119 4.78526 23.5448 4.45541 22.9882C4.45541 22.9882 4.16965 22.35 4.07149 21.9034C3.97792 21.4778 3.95335 20.7893 3.95335 20.7893C3.95335 20.7893 3.9574 20.2134 4.01242 19.8511C4.04245 19.6534 4.13055 19.3527 4.13055 19.3527L4.33728 18.5318Z" stroke="black" stroke-width="0.157657"/>
<path d="M4.33728 18.5318L4.54401 17.7989C3.87631 18.6028 3.52527 20.78 3.53989 20.7893C3.53989 20.7893 3.27017 21.9077 3.48082 23.3987C3.65733 24.6479 4.32862 25.5121 4.63261 25.7735C4.96732 26.1839 6.1657 26.9719 7.91078 27.7671C9.76427 28.6117 15.0283 26.9755 16.0028 26.653C16.9774 26.3305 22.4904 23.2693 23.2679 22.3139L25.6897 20.0564C26.6208 19.0087 28.6005 16.5939 29.0564 15.3654C29.5124 14.137 30.147 12.399 30.3559 11.5247L30.3564 11.5223C30.5654 10.6477 30.9125 9.19536 29.8538 7.24423C28.9107 5.5061 26.3886 4.63489 25.1581 4.45898C25.1581 4.45898 21.6732 4.51762 21.939 4.63489C22.2047 4.75217 26.6052 5.74899 27.7865 7.88924C28.9678 10.0295 27.3799 13.828 26.8414 14.4859C25.9445 15.8033 25.4111 16.4627 24.4197 17.535C23.1179 18.8642 22.3791 19.5446 21.0234 20.6134C19.5304 21.7851 18.6891 22.3214 17.1841 23.1641C17.213 23.1649 14.4451 24.4259 13.7288 24.6594C13.0124 24.8928 11.6024 25.2457 11.1594 25.3337C10.7164 25.4216 9.03303 25.3923 9.03303 25.3923C9.03303 25.3923 7.61543 25.363 6.72946 24.9525C5.84348 24.5421 5.48907 24.2196 5.48907 24.2196C5.01278 23.8119 4.78526 23.5448 4.45541 22.9882C4.45541 22.9882 4.16965 22.35 4.07149 21.9034C3.97792 21.4778 3.95335 20.7893 3.95335 20.7893C3.95335 20.7893 3.9574 20.2134 4.01242 19.8511C4.04245 19.6534 4.13055 19.3527 4.13055 19.3527L4.33728 18.5318Z" fill="#2075F3" stroke="#2075F3" stroke-width="0.157657"/>
<path d="M14.8507 14.8966L14.3486 13.3721C14.1419 13.548 13.752 13.9233 13.8466 14.3689C13.9411 14.8145 14.5554 14.9455 14.8507 14.8966Z" fill="#2075F3" stroke="white" stroke-width="0.157657"/>
<path d="M17.2428 17.7994L16.6816 16.1869C17.0787 16.1063 17.8164 16.349 17.863 16.9492C17.8964 17.3804 17.4987 17.7017 17.2428 17.7994Z" fill="#2075F3" stroke="white" stroke-width="0.157657"/>
<path d="M36.99 12.463C37.2834 12.463 37.43 12.583 37.43 12.823C37.43 12.8977 37.414 12.991 37.382 13.103L37.19 13.751C37.1314 13.9483 37.0594 14.087 36.974 14.167C36.8887 14.247 36.766 14.287 36.606 14.287C36.4727 14.287 36.3687 14.2523 36.294 14.183C36.2247 14.1137 36.158 14.0043 36.094 13.855L35.958 13.527C35.9154 13.4257 35.87 13.3563 35.822 13.319C35.774 13.2817 35.6994 13.263 35.598 13.263H35.414L34.398 16.839C34.382 16.9083 34.374 16.9697 34.374 17.023C34.374 17.087 34.382 17.1403 34.398 17.183C34.4194 17.2257 34.4487 17.271 34.486 17.319C34.534 17.3937 34.558 17.455 34.558 17.503C34.558 17.5137 34.5527 17.5403 34.542 17.583C34.5154 17.6523 34.462 17.703 34.382 17.735C34.3074 17.767 34.198 17.783 34.054 17.783H32.174C32.062 17.783 31.974 17.7643 31.91 17.727C31.8514 17.6897 31.822 17.6363 31.822 17.567C31.822 17.535 31.83 17.503 31.846 17.471C31.8674 17.423 31.8914 17.3883 31.918 17.367C31.95 17.3403 31.9954 17.3083 32.054 17.271C32.134 17.223 32.2007 17.1697 32.254 17.111C32.3074 17.0523 32.3527 16.9617 32.39 16.839L33.398 13.263H33.214C33.0967 13.263 33.0007 13.2817 32.926 13.319C32.8514 13.3563 32.7714 13.4257 32.686 13.527L32.422 13.855C32.2994 13.999 32.1794 14.1083 32.062 14.183C31.95 14.2523 31.8274 14.287 31.694 14.287C31.5714 14.287 31.4754 14.255 31.406 14.191C31.3367 14.127 31.302 14.039 31.302 13.927C31.302 13.8737 31.31 13.815 31.326 13.751L31.534 13.023C31.5767 12.8737 31.6247 12.7617 31.678 12.687C31.7314 12.607 31.806 12.551 31.902 12.519C32.0034 12.4817 32.1447 12.463 32.326 12.463H36.99ZM40.5803 13.559C40.879 13.559 41.1163 13.6497 41.2923 13.831C41.4737 14.0123 41.5643 14.2363 41.5643 14.503C41.5643 14.6043 41.5537 14.6977 41.5323 14.783C41.479 15.0017 41.3777 15.1697 41.2283 15.287C41.079 15.4043 40.9003 15.463 40.6923 15.463C40.4897 15.463 40.335 15.415 40.2283 15.319C40.127 15.223 40.0363 15.095 39.9563 14.935C39.9137 14.8443 39.8737 14.7777 39.8363 14.735C39.799 14.6923 39.7563 14.671 39.7083 14.671C39.655 14.671 39.607 14.6923 39.5643 14.735C39.527 14.7777 39.4923 14.8523 39.4603 14.959L38.8443 16.959C38.8337 16.9857 38.8283 17.0257 38.8283 17.079C38.8283 17.1483 38.847 17.207 38.8843 17.255C38.927 17.2977 38.983 17.3403 39.0523 17.383C39.1163 17.4257 39.159 17.4603 39.1803 17.487C39.2017 17.5137 39.2097 17.5483 39.2043 17.591C39.1937 17.6603 39.1537 17.711 39.0843 17.743C39.0203 17.775 38.9083 17.791 38.7483 17.791H36.7003C36.5617 17.791 36.463 17.7697 36.4043 17.727C36.3403 17.679 36.3163 17.6177 36.3323 17.543C36.3537 17.479 36.4097 17.423 36.5003 17.375C36.5803 17.3323 36.647 17.2817 36.7003 17.223C36.7537 17.1643 36.799 17.071 36.8363 16.943L37.5483 14.631C37.559 14.6043 37.5643 14.567 37.5643 14.519C37.5643 14.4603 37.551 14.415 37.5243 14.383C37.503 14.351 37.4657 14.311 37.4123 14.263C37.359 14.2203 37.3217 14.183 37.3003 14.151C37.279 14.119 37.2763 14.0763 37.2923 14.023C37.3243 13.9003 37.4923 13.7937 37.7963 13.703C38.1003 13.607 38.4177 13.559 38.7483 13.559C38.967 13.559 39.1483 13.6097 39.2923 13.711C39.4363 13.807 39.5297 13.9457 39.5723 14.127C39.8283 13.7483 40.1643 13.559 40.5803 13.559ZM43.9849 13.559C44.5982 13.559 45.0889 13.6737 45.4569 13.903C45.8249 14.127 46.0089 14.471 46.0089 14.935C46.0089 15.111 45.9769 15.311 45.9129 15.535L45.5849 16.639C45.5796 16.6603 45.5769 16.687 45.5769 16.719C45.5769 16.8043 45.6116 16.847 45.6809 16.847C45.7449 16.847 45.7982 16.8203 45.8409 16.767C45.8889 16.7083 45.9209 16.679 45.9369 16.679C45.9636 16.679 45.9849 16.6977 46.0009 16.735C46.0222 16.7723 46.0329 16.815 46.0329 16.863C46.0382 17.007 45.9822 17.1537 45.8649 17.303C45.7529 17.4523 45.6009 17.575 45.4089 17.671C45.2169 17.767 45.0062 17.815 44.7769 17.815C44.4996 17.815 44.2622 17.7643 44.0649 17.663C43.8676 17.5617 43.7316 17.4123 43.6569 17.215C43.4969 17.407 43.3076 17.5563 43.0889 17.663C42.8702 17.7643 42.6356 17.815 42.3849 17.815C42.1022 17.815 41.8649 17.7617 41.6729 17.655C41.4809 17.543 41.3369 17.4017 41.2409 17.231C41.1502 17.055 41.1049 16.871 41.1049 16.679C41.1049 16.5937 41.1129 16.511 41.1289 16.431C41.2142 16.063 41.3982 15.7857 41.6809 15.599C41.9689 15.4123 42.3102 15.319 42.7049 15.319C43.1476 15.319 43.5822 15.3883 44.0089 15.527L44.2089 14.999C44.2782 14.775 44.3129 14.6017 44.3129 14.479C44.3076 14.351 44.2649 14.255 44.1849 14.191C44.1049 14.127 43.9822 14.095 43.8169 14.095C43.8489 14.1803 43.8649 14.2683 43.8649 14.359C43.8649 14.5563 43.7902 14.727 43.6409 14.871C43.4916 15.015 43.2782 15.087 43.0009 15.087C42.7396 15.087 42.5342 15.031 42.3849 14.919C42.2409 14.8017 42.1689 14.6577 42.1689 14.487C42.1689 14.2203 42.3182 13.999 42.6169 13.823C42.9156 13.647 43.3716 13.559 43.9849 13.559ZM43.5369 15.983C43.3876 15.983 43.2649 16.0417 43.1689 16.159C43.0782 16.271 43.0329 16.3937 43.0329 16.527C43.0329 16.6123 43.0516 16.6817 43.0889 16.735C43.1316 16.7883 43.1902 16.815 43.2649 16.815C43.3342 16.815 43.4089 16.7883 43.4889 16.735C43.5742 16.6763 43.6356 16.591 43.6729 16.479L43.8409 16.007C43.7502 15.991 43.6489 15.983 43.5369 15.983ZM51.3153 16.687C51.3046 16.7083 51.2993 16.7403 51.2993 16.783C51.2993 16.8203 51.3073 16.8497 51.3233 16.871C51.3446 16.8923 51.3713 16.903 51.4033 16.903C51.4673 16.903 51.5206 16.8763 51.5633 16.823C51.6113 16.7643 51.6433 16.735 51.6593 16.735C51.6859 16.735 51.7073 16.7537 51.7233 16.791C51.7393 16.823 51.7473 16.863 51.7473 16.911C51.7526 17.0657 51.7019 17.2177 51.5953 17.367C51.4886 17.511 51.3313 17.631 51.1233 17.727C50.9206 17.8177 50.6753 17.863 50.3873 17.863C50.0353 17.863 49.7553 17.783 49.5473 17.623C49.3393 17.4577 49.2326 17.239 49.2273 16.967C49.2273 16.7697 49.2753 16.5483 49.3713 16.303L49.8113 15.151C49.8379 15.0817 49.8513 15.0257 49.8513 14.983C49.8513 14.9137 49.8273 14.8603 49.7793 14.823C49.7366 14.7803 49.6833 14.759 49.6193 14.759C49.5019 14.759 49.3899 14.815 49.2833 14.927C49.1766 15.0337 49.0993 15.167 49.0513 15.327L48.5553 16.959C48.5339 17.0177 48.5233 17.0737 48.5233 17.127C48.5233 17.191 48.5366 17.2443 48.5633 17.287C48.5899 17.3243 48.6273 17.3643 48.6753 17.407C48.7126 17.439 48.7393 17.4683 48.7553 17.495C48.7713 17.5217 48.7739 17.5537 48.7633 17.591C48.7419 17.6603 48.6913 17.711 48.6113 17.743C48.5313 17.775 48.4059 17.791 48.2353 17.791H46.4113C46.2726 17.791 46.1739 17.7697 46.1153 17.727C46.0513 17.679 46.0273 17.6177 46.0433 17.543C46.0646 17.479 46.1206 17.423 46.2113 17.375C46.2913 17.3323 46.3579 17.2817 46.4113 17.223C46.4646 17.1643 46.5099 17.071 46.5473 16.943L47.2593 14.631C47.2699 14.6043 47.2753 14.567 47.2753 14.519C47.2753 14.4603 47.2619 14.415 47.2353 14.383C47.2139 14.351 47.1766 14.311 47.1233 14.263C47.0699 14.2203 47.0326 14.183 47.0113 14.151C46.9899 14.119 46.9873 14.0763 47.0033 14.023C47.0353 13.9003 47.2033 13.7937 47.5073 13.703C47.8113 13.607 48.1286 13.559 48.4593 13.559C48.7259 13.559 48.9366 13.6337 49.0913 13.783C49.2459 13.927 49.3153 14.1297 49.2993 14.391C49.5179 14.0763 49.7499 13.8603 49.9953 13.743C50.2406 13.6203 50.5073 13.559 50.7953 13.559C51.1206 13.559 51.3819 13.6577 51.5793 13.855C51.7819 14.0523 51.8833 14.3083 51.8833 14.623C51.8833 14.7883 51.8566 14.951 51.8033 15.111L51.3153 16.687ZM54.7218 13.487C55.1645 13.487 55.5458 13.527 55.8658 13.607C56.1912 13.687 56.4392 13.799 56.6098 13.943C56.7858 14.087 56.8738 14.2497 56.8738 14.431C56.8738 14.6177 56.7992 14.7697 56.6498 14.887C56.5058 15.0043 56.3032 15.063 56.0418 15.063C55.7752 15.063 55.5485 14.9963 55.3618 14.863C55.1805 14.7297 55.0898 14.5617 55.0898 14.359C55.0898 14.2897 55.1005 14.223 55.1218 14.159C55.0258 14.1323 54.9405 14.119 54.8658 14.119C54.7325 14.119 54.6205 14.151 54.5298 14.215C54.4445 14.279 54.4045 14.3697 54.4098 14.487C54.4098 14.6257 54.4792 14.743 54.6178 14.839C54.7565 14.935 54.9805 15.055 55.2898 15.199C55.5565 15.3163 55.7752 15.4257 55.9458 15.527C56.1218 15.623 56.2685 15.7457 56.3858 15.895C56.5085 16.0443 56.5698 16.2203 56.5698 16.423C56.5698 16.4657 56.5592 16.5457 56.5378 16.663C56.4525 17.0203 56.2152 17.303 55.8258 17.511C55.4365 17.719 54.9245 17.823 54.2898 17.823C53.5752 17.823 53.0072 17.727 52.5858 17.535C52.1698 17.343 51.9618 17.079 51.9618 16.743C51.9618 16.5137 52.0312 16.3403 52.1698 16.223C52.3085 16.1057 52.4925 16.047 52.7218 16.047C52.9885 16.047 53.2152 16.1297 53.4018 16.295C53.5938 16.4603 53.6898 16.671 53.6898 16.927C53.6898 16.9963 53.6818 17.0683 53.6658 17.143C53.7938 17.175 53.9165 17.191 54.0338 17.191C54.1725 17.191 54.2872 17.1537 54.3778 17.079C54.4685 17.0043 54.5138 16.9003 54.5138 16.767C54.5085 16.6443 54.4472 16.5403 54.3298 16.455C54.2125 16.3643 54.0258 16.2577 53.7698 16.135C53.5298 16.023 53.3325 15.919 53.1778 15.823C53.0232 15.7217 52.8898 15.5963 52.7778 15.447C52.6712 15.2977 52.6178 15.1217 52.6178 14.919C52.6178 14.4817 52.7992 14.135 53.1618 13.879C53.5298 13.6177 54.0498 13.487 54.7218 13.487ZM62.056 12.463C62.2534 12.463 62.4054 12.5057 62.512 12.591C62.624 12.6763 62.68 12.7937 62.68 12.943C62.68 13.0177 62.6694 13.0897 62.648 13.159L62.44 13.903C62.4027 14.047 62.3467 14.1483 62.272 14.207C62.2027 14.2603 62.1014 14.287 61.968 14.287C61.84 14.287 61.7387 14.2603 61.664 14.207C61.5947 14.1483 61.5414 14.055 61.504 13.927L61.376 13.471C61.3494 13.375 61.3174 13.311 61.28 13.279C61.2427 13.247 61.1707 13.231 61.064 13.231H60.224L59.824 14.655H60.176C60.2134 14.655 60.264 14.6283 60.328 14.575L60.6 14.335C60.68 14.2657 60.7494 14.215 60.808 14.183C60.8667 14.151 60.9387 14.135 61.024 14.135C61.12 14.135 61.1974 14.1617 61.256 14.215C61.32 14.263 61.352 14.327 61.352 14.407C61.352 14.4283 61.3467 14.4603 61.336 14.503L61.008 15.615C60.976 15.7323 60.92 15.8203 60.84 15.879C60.7654 15.9323 60.6827 15.959 60.592 15.959C60.4427 15.959 60.3307 15.8817 60.256 15.727L60.12 15.447C60.0827 15.367 60.024 15.327 59.944 15.327H59.632L59.16 17.023H59.864C59.9654 17.023 60.0534 17.0043 60.128 16.967C60.208 16.9243 60.2934 16.8523 60.384 16.751L60.864 16.223C60.9494 16.1323 61.0294 16.0683 61.104 16.031C61.184 15.9883 61.28 15.967 61.392 15.967C61.5094 15.967 61.6054 15.9937 61.68 16.047C61.7547 16.1003 61.792 16.1803 61.792 16.287C61.792 16.3297 61.784 16.3803 61.768 16.439L61.536 17.247C61.4774 17.4497 61.392 17.591 61.28 17.671C61.168 17.751 61.0054 17.791 60.792 17.791H56.976C56.864 17.791 56.7787 17.7723 56.72 17.735C56.656 17.6977 56.624 17.647 56.624 17.583C56.624 17.551 56.632 17.5163 56.648 17.479C56.6694 17.4203 56.704 17.375 56.752 17.343C56.8 17.311 56.8294 17.2923 56.84 17.287C56.9254 17.2337 56.9947 17.1803 57.048 17.127C57.1014 17.0683 57.1467 16.975 57.184 16.847L58.168 13.399C58.1894 13.3297 58.2 13.2657 58.2 13.207C58.2 13.143 58.1894 13.0897 58.168 13.047C58.152 13.0043 58.1254 12.959 58.088 12.911C58.04 12.8417 58.016 12.7857 58.016 12.743C58.016 12.727 58.0214 12.6977 58.032 12.655C58.0534 12.5857 58.1014 12.5377 58.176 12.511C58.2507 12.479 58.36 12.463 58.504 12.463H62.056ZM66.1032 13.559C66.3859 13.559 66.6206 13.6603 66.8072 13.863C66.9939 14.0657 67.0872 14.343 67.0872 14.695C67.0872 15.1697 66.9219 15.655 66.5912 16.151C66.2606 16.647 65.8419 17.0577 65.3352 17.383C64.8286 17.703 64.3352 17.863 63.8552 17.863C63.3966 17.863 63.0232 17.7697 62.7352 17.583C62.4526 17.3963 62.3112 17.1297 62.3112 16.783C62.3112 16.655 62.3352 16.511 62.3832 16.351L62.8872 14.631C62.8979 14.5883 62.9032 14.5563 62.9032 14.535C62.9032 14.4817 62.8899 14.4363 62.8632 14.399C62.8366 14.3617 62.7992 14.3217 62.7512 14.279C62.6712 14.2097 62.6312 14.1483 62.6312 14.095C62.6259 14.0203 62.6712 13.9403 62.7672 13.855C62.8632 13.7697 62.9966 13.7003 63.1672 13.647C63.3432 13.5883 63.5406 13.559 63.7592 13.559C64.1166 13.559 64.3939 13.647 64.5912 13.823C64.7939 13.9937 64.8952 14.2177 64.8952 14.495C64.8952 14.6177 64.8739 14.751 64.8312 14.895L64.3112 16.607C64.2952 16.655 64.2872 16.695 64.2872 16.727C64.2872 16.7963 64.3112 16.8497 64.3592 16.887C64.4072 16.9243 64.4739 16.943 64.5592 16.943C64.6766 16.943 64.8126 16.8923 64.9672 16.791C65.1272 16.6843 65.2846 16.535 65.4392 16.343C65.5939 16.1457 65.7192 15.9137 65.8152 15.647C65.6019 15.4603 65.4499 15.2763 65.3592 15.095C65.2739 14.9137 65.2312 14.727 65.2312 14.535C65.2312 14.263 65.3059 14.0337 65.4552 13.847C65.6046 13.655 65.8206 13.559 66.1032 13.559ZM69.0923 13.559C69.4016 13.559 69.6283 13.6177 69.7723 13.735C69.9163 13.8523 69.9883 14.0123 69.9883 14.215C69.9883 14.3377 69.9696 14.455 69.9323 14.567L69.1963 16.959C69.1803 17.023 69.1723 17.079 69.1723 17.127C69.1723 17.1963 69.1856 17.2523 69.2123 17.295C69.2389 17.3323 69.2763 17.3697 69.3243 17.407C69.3616 17.4443 69.3883 17.4763 69.4043 17.503C69.4203 17.5243 69.4229 17.5537 69.4123 17.591C69.3856 17.6603 69.3323 17.711 69.2523 17.743C69.1723 17.775 69.0496 17.791 68.8843 17.791H67.0603C66.9216 17.791 66.8203 17.7697 66.7563 17.727C66.6923 17.679 66.6709 17.6177 66.6923 17.543C66.7136 17.479 66.7696 17.423 66.8603 17.375C66.9403 17.3323 67.0069 17.2817 67.0603 17.223C67.1136 17.1643 67.1589 17.071 67.1963 16.943L67.8923 14.631C67.9083 14.583 67.9163 14.543 67.9163 14.511C67.9163 14.4523 67.9029 14.407 67.8763 14.375C67.8496 14.3377 67.8096 14.3003 67.7563 14.263C67.7029 14.2203 67.6656 14.183 67.6443 14.151C67.6229 14.119 67.6203 14.0763 67.6363 14.023C67.6683 13.9003 67.8363 13.7937 68.1403 13.703C68.4443 13.607 68.7616 13.559 69.0923 13.559ZM69.6283 11.791C69.8363 11.791 70.0096 11.8603 70.1483 11.999C70.2869 12.1323 70.3563 12.2977 70.3563 12.495C70.3563 12.6337 70.3189 12.7697 70.2443 12.903C70.1749 13.0363 70.0736 13.1457 69.9403 13.231C69.8123 13.311 69.6683 13.351 69.5083 13.351C69.3056 13.351 69.1349 13.2843 68.9963 13.151C68.8629 13.0123 68.7936 12.8417 68.7883 12.639C68.7883 12.5057 68.8229 12.375 68.8923 12.247C68.9616 12.1137 69.0603 12.0043 69.1883 11.919C69.3163 11.8337 69.4629 11.791 69.6283 11.791ZM72.47 11.879C72.7793 11.879 73.006 11.9377 73.15 12.055C73.2993 12.1723 73.374 12.3323 73.374 12.535C73.374 12.6523 73.3553 12.767 73.318 12.879L72.062 16.959C72.046 17.023 72.038 17.079 72.038 17.127C72.038 17.1963 72.0513 17.2523 72.078 17.295C72.1046 17.3323 72.142 17.3697 72.19 17.407C72.2273 17.4443 72.254 17.4763 72.27 17.503C72.286 17.5243 72.2886 17.5537 72.278 17.591C72.2513 17.6603 72.198 17.711 72.118 17.743C72.038 17.775 71.9153 17.791 71.75 17.791H69.926C69.7873 17.791 69.686 17.7697 69.622 17.727C69.558 17.679 69.5366 17.6177 69.558 17.543C69.5793 17.479 69.6353 17.423 69.726 17.375C69.806 17.3323 69.8726 17.2817 69.926 17.223C69.9793 17.1643 70.0246 17.071 70.062 16.943L71.278 12.951C71.294 12.903 71.302 12.863 71.302 12.831C71.302 12.7723 71.286 12.7243 71.254 12.687C71.2273 12.6497 71.19 12.6123 71.142 12.575C71.0886 12.5323 71.0486 12.495 71.022 12.463C71.0006 12.431 70.998 12.3883 71.014 12.335C71.046 12.2123 71.214 12.1057 71.518 12.015C71.822 11.9243 72.1393 11.879 72.47 11.879ZM77.1037 13.559C77.2797 13.559 77.4423 13.6017 77.5917 13.687C77.7463 13.7723 77.8663 13.8817 77.9517 14.015C78.0423 14.1483 78.0877 14.287 78.0877 14.431C78.0877 14.6337 78.0317 14.8097 77.9197 14.959C77.8077 15.103 77.629 15.247 77.3837 15.391L75.6877 16.399C75.8477 16.5803 76.005 16.671 76.1597 16.671C76.2823 16.671 76.3917 16.6257 76.4877 16.535C76.5837 16.4443 76.693 16.3137 76.8157 16.143C76.8903 16.0417 76.9463 15.9697 76.9837 15.927C77.021 15.8843 77.0583 15.863 77.0957 15.863C77.1917 15.863 77.2957 15.8977 77.4077 15.967C77.525 16.0363 77.6237 16.1377 77.7037 16.271C77.789 16.4043 77.8317 16.5643 77.8317 16.751C77.8317 16.943 77.781 17.1217 77.6797 17.287C77.5837 17.447 77.445 17.575 77.2637 17.671C77.0877 17.767 76.8797 17.815 76.6397 17.815C76.405 17.815 76.2077 17.775 76.0477 17.695C75.8877 17.6097 75.7623 17.5163 75.6717 17.415C75.5863 17.3137 75.501 17.1937 75.4157 17.055C75.3463 16.9323 75.293 16.871 75.2557 16.871C75.2237 16.871 75.189 16.8897 75.1517 16.927C75.1197 16.9643 75.0717 17.0283 75.0077 17.119C74.8637 17.327 74.7143 17.495 74.5597 17.623C74.4103 17.751 74.213 17.815 73.9677 17.815C73.733 17.815 73.5197 17.7723 73.3277 17.687C73.141 17.6017 72.9917 17.4897 72.8797 17.351C72.773 17.207 72.7197 17.0523 72.7197 16.887C72.7197 16.5937 72.9143 16.3243 73.3037 16.079L75.3597 14.823C75.269 14.711 75.189 14.631 75.1197 14.583C75.0503 14.535 74.9757 14.511 74.8957 14.511C74.7943 14.511 74.7063 14.5483 74.6317 14.623C74.5623 14.6923 74.4903 14.791 74.4157 14.919C74.3623 15.0043 74.317 15.0683 74.2797 15.111C74.2477 15.1537 74.2103 15.175 74.1677 15.175C74.0023 15.175 73.8583 15.1163 73.7357 14.999C73.613 14.8817 73.5517 14.7217 73.5517 14.519C73.5517 14.3537 73.5917 14.199 73.6717 14.055C73.757 13.9057 73.8743 13.7857 74.0237 13.695C74.1783 13.6043 74.357 13.559 74.5597 13.559C74.853 13.559 75.0797 13.631 75.2397 13.775C75.405 13.9137 75.5517 14.087 75.6797 14.295C75.7543 14.4123 75.805 14.471 75.8317 14.471C75.8583 14.471 75.8877 14.455 75.9197 14.423C75.957 14.3857 75.9863 14.351 76.0077 14.319C76.0343 14.2817 76.0557 14.255 76.0717 14.239C76.2317 14.031 76.3863 13.8657 76.5357 13.743C76.685 13.6203 76.8743 13.559 77.1037 13.559Z" fill="#004BBB"/>
</svg>
