<svg width="25" height="24" viewBox="0 0 25 24" fill="none" xmlns="http://www.w3.org/2000/svg">
<path d="M13.8333 5.52518C13.8333 5.86902 13.6929 6.19879 13.4428 6.44193C13.1928 6.68506 12.8536 6.82166 12.5 6.82166C12.1464 6.82166 11.8072 6.68506 11.5572 6.44193C11.3071 6.19879 11.1667 5.86902 11.1667 5.52518C11.1667 5.18133 11.3071 4.85157 11.5572 4.60843C11.8072 4.36529 12.1464 4.2287 12.5 4.2287C12.8536 4.2287 13.1928 4.36529 13.4428 4.60843C13.6929 4.85157 13.8333 5.18133 13.8333 5.52518ZM13.876 0.436497C13.4765 0.152856 12.9947 0 12.5 0C12.0053 0 11.5235 0.152856 11.124 0.436497L1.22933 7.45693C-0.0746667 8.38132 0.598667 10.387 2.21067 10.387H2.5V17.9065C1.89792 18.2053 1.39249 18.6601 1.03955 19.2206C0.686599 19.7812 0.499875 20.4257 0.5 21.0829V23.0276C0.5 23.5631 0.948 24 1.5 24H23.5C23.7652 24 24.0196 23.8976 24.2071 23.7152C24.3946 23.5329 24.5 23.2855 24.5 23.0276V21.0829C24.5001 20.4257 24.3134 19.7812 23.9605 19.2206C23.6075 18.6601 23.1021 18.2053 22.5 17.9065V10.387H22.7893C24.4027 10.387 25.0733 8.38132 23.7707 7.45693L13.876 0.435201V0.436497ZM12.3027 2.00653C12.3598 1.96597 12.4286 1.94411 12.4993 1.94411C12.57 1.94411 12.6389 1.96597 12.696 2.00653L21.7667 8.44225H3.23333L12.304 2.00653H12.3027ZM20.5 10.387V17.5176H17.8333V10.387H20.5ZM15.8333 10.387V17.5176H13.5V10.387H15.8333ZM11.5 10.387V17.5176H9.16667V10.387H11.5ZM4.16667 19.4623H20.8333C21.7533 19.4623 22.5 20.1884 22.5 21.0829V22.0553H2.5V21.0829C2.5 20.1884 3.24667 19.4623 4.16667 19.4623ZM4.5 17.5176V10.387H7.16667V17.5176H4.5Z" fill="white"/>
</svg>
