<svg width="30" height="30" viewBox="0 0 30 30" fill="none" xmlns="http://www.w3.org/2000/svg">
<path d="M2.08398 7.08325H27.9173V22.9166H2.08398V7.08325Z" fill="#D22F27"/>
<path d="M2.08398 15H27.9173V22.9167H2.08398V15Z" fill="#F1F7FF"/>
<path d="M8.33268 9.58333C8.5628 9.58333 8.74935 9.39679 8.74935 9.16667C8.74935 8.93655 8.5628 8.75 8.33268 8.75C8.10256 8.75 7.91602 8.93655 7.91602 9.16667C7.91602 9.39679 8.10256 9.58333 8.33268 9.58333Z" fill="#F1F7FF"/>
<path d="M7.50065 11.6666C7.73077 11.6666 7.91732 11.48 7.91732 11.2499C7.91732 11.0198 7.73077 10.8333 7.50065 10.8333C7.27053 10.8333 7.08398 11.0198 7.08398 11.2499C7.08398 11.48 7.27053 11.6666 7.50065 11.6666Z" fill="#F1F7FF"/>
<path d="M9.16667 11.6666C9.39679 11.6666 9.58333 11.48 9.58333 11.2499C9.58333 11.0198 9.39679 10.8333 9.16667 10.8333C8.93655 10.8333 8.75 11.0198 8.75 11.2499C8.75 11.48 8.93655 11.6666 9.16667 11.6666Z" fill="#F1F7FF"/>
<path d="M7.08268 10.4166C7.3128 10.4166 7.49935 10.23 7.49935 9.99992C7.49935 9.7698 7.3128 9.58325 7.08268 9.58325C6.85256 9.58325 6.66602 9.7698 6.66602 9.99992C6.66602 10.23 6.85256 10.4166 7.08268 10.4166Z" fill="#F1F7FF"/>
<path d="M9.58268 10.4166C9.8128 10.4166 9.99935 10.23 9.99935 9.99992C9.99935 9.7698 9.8128 9.58325 9.58268 9.58325C9.35256 9.58325 9.16602 9.7698 9.16602 9.99992C9.16602 10.23 9.35256 10.4166 9.58268 10.4166Z" fill="#F1F7FF"/>
<path d="M4.66574 10.3845C4.65854 9.91826 4.81204 9.46374 5.10045 9.09733C5.38886 8.73092 5.7946 8.47494 6.24949 8.37242C6.12447 8.34657 5.99716 8.33345 5.86949 8.33325C5.3407 8.35587 4.84107 8.58184 4.47489 8.96401C4.10872 9.34618 3.9043 9.85501 3.9043 10.3843C3.9043 10.9136 4.10872 11.4224 4.47489 11.8046C4.84107 12.1867 5.3407 12.4127 5.86949 12.4353C5.99716 12.4351 6.12447 12.422 6.24949 12.3962C5.79467 12.2937 5.38899 12.0377 5.10059 11.6714C4.81218 11.3051 4.65864 10.8507 4.66574 10.3845Z" fill="#F1F7FF" stroke="#F1F7FF" stroke-linecap="round" stroke-linejoin="round"/>
</svg>
