<svg width="30" height="30" viewBox="0 0 30 30" fill="none" xmlns="http://www.w3.org/2000/svg">
<path d="M2.08398 7.08325H27.9173V22.9166H2.08398V7.08325Z" fill="#1E50A0"/>
<path d="M22.5977 16.2271L22.984 14.9771L23.3702 16.2271L22.359 15.4542L23.609 15.4546L22.5977 16.2271ZM8.54232 19.5829L7.89315 20.1983L7.95773 19.2942L7.08398 19.1575L7.81315 18.645L7.37273 17.8592L8.21773 18.1246L8.54232 17.2817L8.8669 18.1246L9.7119 17.8592L9.27148 18.645L10.0007 19.1575L9.1269 19.2942L9.19148 20.1983L8.54232 19.5829ZM18.5423 14.7587L18.0786 15.1983L18.1248 14.5525L17.5007 14.4546L18.0215 14.0887L17.7069 13.5275L18.3107 13.7171L18.5423 13.115L18.774 13.7171L19.3777 13.5275L19.0632 14.0887L19.584 14.4546L18.9598 14.5525L19.0061 15.1983L18.5423 14.7587ZM24.7923 13.5087L24.3286 13.9483L24.3748 13.3025L23.7507 13.2046L24.2715 12.8387L23.9569 12.2775L24.5606 12.4671L24.7923 11.865L25.024 12.4671L25.6277 12.2775L25.3132 12.8387L25.834 13.2046L25.2098 13.3025L25.2561 13.9483L24.7923 13.5087ZM21.459 11.0087L20.9952 11.4483L21.0415 10.8025L20.4173 10.7046L20.9382 10.3387L20.6236 9.77749L21.2273 9.96707L21.459 9.36499L21.6907 9.96707L22.2944 9.77749L21.9798 10.3387L22.5007 10.7046L21.8765 10.8025L21.9227 11.4483L21.459 11.0087ZM21.459 19.7587L20.9952 20.1983L21.0415 19.5525L20.4173 19.4546L20.9382 19.0887L20.6236 18.5275L21.2273 18.7171L21.459 18.115L21.6907 18.7171L22.2944 18.5275L21.9798 19.0887L22.5007 19.4546L21.8765 19.5525L21.9227 20.1983L21.459 19.7587Z" fill="#F1F7FF" stroke="#F1F7FF" stroke-linecap="round" stroke-linejoin="round"/>
<path d="M4.11958 7.5H2.5V8.47167L13.3804 15H15V14.0283L4.11958 7.5Z" fill="#F1F7FF"/>
<path d="M15 8.47167V7.5H13.3804L2.5 14.0283V15H4.11958L15 8.47167Z" fill="#F1F7FF"/>
<path d="M2.5 10H15V12.5H2.5V10Z" fill="#F1F7FF"/>
<path d="M7.5 7.5H10V15H7.5V7.5Z" fill="#F1F7FF"/>
<path d="M8.33398 7.5H9.16732V15H8.33398V7.5Z" fill="#D22F27"/>
<path d="M2.5 10.8333H15V11.6667H2.5V10.8333ZM15 14.0283L12.4529 12.5H10.8333L15 15V14.0283ZM15 7.5H13.3804L10 9.52833V10H10.8333L15 7.5ZM2.5 8.47167L5.04708 10H6.66667L2.5 7.5V8.47167ZM2.5 15H4.11958L7.5 12.9717V12.5H6.66667L2.5 15Z" fill="#D22F27"/>
</svg>
