<svg width="30" height="30" viewBox="0 0 30 30" fill="none" xmlns="http://www.w3.org/2000/svg">
<path d="M2.08398 7.08325H27.9173V22.9166H2.08398V7.08325Z" fill="#F1F7FF"/>
<path d="M2.08398 7.08325H27.9173V9.16659H2.08398V7.08325ZM2.08398 10.8333H27.9173V12.4999H2.08398V10.8333ZM2.08398 14.1666H27.9173V15.8333H2.08398V14.1666Z" fill="#D22F27"/>
<path d="M2.08398 7.08325H15.4173V15.8333H2.08398V7.08325Z" fill="#1E50A0"/>
<path d="M2.08398 17.5H27.9173V19.1667H2.08398V17.5Z" fill="#D22F27"/>
<path d="M3.95768 9.89583C4.36039 9.89583 4.68685 9.56937 4.68685 9.16667C4.68685 8.76396 4.36039 8.4375 3.95768 8.4375C3.55497 8.4375 3.22852 8.76396 3.22852 9.16667C3.22852 9.56937 3.55497 9.89583 3.95768 9.89583Z" fill="#F1F7FF"/>
<path d="M7.29167 9.89583C7.69437 9.89583 8.02083 9.56937 8.02083 9.16667C8.02083 8.76396 7.69437 8.4375 7.29167 8.4375C6.88896 8.4375 6.5625 8.76396 6.5625 9.16667C6.5625 9.56937 6.88896 9.89583 7.29167 9.89583Z" fill="#F1F7FF"/>
<path d="M10.6257 9.89583C11.0284 9.89583 11.3548 9.56937 11.3548 9.16667C11.3548 8.76396 11.0284 8.4375 10.6257 8.4375C10.2229 8.4375 9.89648 8.76396 9.89648 9.16667C9.89648 9.56937 10.2229 9.89583 10.6257 9.89583Z" fill="#F1F7FF"/>
<path d="M13.9577 9.89583C14.3604 9.89583 14.6868 9.56937 14.6868 9.16667C14.6868 8.76396 14.3604 8.4375 13.9577 8.4375C13.555 8.4375 13.2285 8.76396 13.2285 9.16667C13.2285 9.56937 13.555 9.89583 13.9577 9.89583Z" fill="#F1F7FF"/>
<path d="M12.2917 11.5626C12.6944 11.5626 13.0208 11.2361 13.0208 10.8334C13.0208 10.4307 12.6944 10.1042 12.2917 10.1042C11.889 10.1042 11.5625 10.4307 11.5625 10.8334C11.5625 11.2361 11.889 11.5626 12.2917 11.5626Z" fill="#F1F7FF"/>
<path d="M8.95768 11.5626C9.36039 11.5626 9.68685 11.2361 9.68685 10.8334C9.68685 10.4307 9.36039 10.1042 8.95768 10.1042C8.55497 10.1042 8.22852 10.4307 8.22852 10.8334C8.22852 11.2361 8.55497 11.5626 8.95768 11.5626Z" fill="#F1F7FF"/>
<path d="M5.62565 11.5626C6.02836 11.5626 6.35482 11.2361 6.35482 10.8334C6.35482 10.4307 6.02836 10.1042 5.62565 10.1042C5.22294 10.1042 4.89648 10.4307 4.89648 10.8334C4.89648 11.2361 5.22294 11.5626 5.62565 11.5626Z" fill="#F1F7FF"/>
<path d="M3.95768 13.2291C4.36039 13.2291 4.68685 12.9026 4.68685 12.4999C4.68685 12.0972 4.36039 11.7708 3.95768 11.7708C3.55497 11.7708 3.22852 12.0972 3.22852 12.4999C3.22852 12.9026 3.55497 13.2291 3.95768 13.2291Z" fill="#F1F7FF"/>
<path d="M7.29167 13.2291C7.69437 13.2291 8.02083 12.9026 8.02083 12.4999C8.02083 12.0972 7.69437 11.7708 7.29167 11.7708C6.88896 11.7708 6.5625 12.0972 6.5625 12.4999C6.5625 12.9026 6.88896 13.2291 7.29167 13.2291Z" fill="#F1F7FF"/>
<path d="M10.6257 13.2291C11.0284 13.2291 11.3548 12.9026 11.3548 12.4999C11.3548 12.0972 11.0284 11.7708 10.6257 11.7708C10.2229 11.7708 9.89648 12.0972 9.89648 12.4999C9.89648 12.9026 10.2229 13.2291 10.6257 13.2291Z" fill="#F1F7FF"/>
<path d="M13.9577 13.2291C14.3604 13.2291 14.6868 12.9026 14.6868 12.4999C14.6868 12.0972 14.3604 11.7708 13.9577 11.7708C13.555 11.7708 13.2285 12.0972 13.2285 12.4999C13.2285 12.9026 13.555 13.2291 13.9577 13.2291Z" fill="#F1F7FF"/>
<path d="M12.2917 14.8958C12.6944 14.8958 13.0208 14.5694 13.0208 14.1667C13.0208 13.764 12.6944 13.4375 12.2917 13.4375C11.889 13.4375 11.5625 13.764 11.5625 14.1667C11.5625 14.5694 11.889 14.8958 12.2917 14.8958Z" fill="#F1F7FF"/>
<path d="M8.95768 14.8958C9.36039 14.8958 9.68685 14.5694 9.68685 14.1667C9.68685 13.764 9.36039 13.4375 8.95768 13.4375C8.55497 13.4375 8.22852 13.764 8.22852 14.1667C8.22852 14.5694 8.55497 14.8958 8.95768 14.8958Z" fill="#F1F7FF"/>
<path d="M5.62565 14.8958C6.02836 14.8958 6.35482 14.5694 6.35482 14.1667C6.35482 13.764 6.02836 13.4375 5.62565 13.4375C5.22294 13.4375 4.89648 13.764 4.89648 14.1667C4.89648 14.5694 5.22294 14.8958 5.62565 14.8958Z" fill="#F1F7FF"/>
<path d="M2.08398 20.8333H27.9173V22.9166H2.08398V20.8333Z" fill="#D22F27"/>
</svg>
