<svg width="45" height="40" viewBox="0 0 45 40" fill="none" xmlns="http://www.w3.org/2000/svg">
<rect width="45" height="40" rx="10" fill="#2ACA10"/>
<path d="M32 18C32 25 23 31 23 31C23 31 14 25 14 18C14 15.6131 14.9482 13.3239 16.636 11.636C18.3239 9.94821 20.6131 9 23 9C25.3869 9 27.6761 9.94821 29.364 11.636C31.0518 13.3239 32 15.6131 32 18Z" stroke="white" stroke-width="2" stroke-linecap="round" stroke-linejoin="round"/>
<path d="M23 21C24.6569 21 26 19.6569 26 18C26 16.3431 24.6569 15 23 15C21.3431 15 20 16.3431 20 18C20 19.6569 21.3431 21 23 21Z" stroke="white" stroke-width="2" stroke-linecap="round" stroke-linejoin="round"/>
</svg>
