<svg width="45" height="40" viewBox="0 0 45 40" fill="none" xmlns="http://www.w3.org/2000/svg">
<rect width="45" height="40" rx="10" fill="#2ACA10"/>
<path d="M32.9994 24.9201V27.9201C33.0006 28.1986 32.9435 28.4743 32.832 28.7294C32.7204 28.9846 32.5567 29.2137 32.3515 29.402C32.1463 29.5902 31.904 29.7336 31.6402 29.8228C31.3764 29.912 31.0968 29.9452 30.8194 29.9201C27.7423 29.5857 24.7864 28.5342 22.1894 26.8501C19.7733 25.3148 17.7248 23.2663 16.1894 20.8501C14.4994 18.2413 13.4477 15.2711 13.1194 12.1801C13.0945 11.9036 13.1273 11.6249 13.2159 11.3617C13.3046 11.0986 13.447 10.8568 13.6342 10.6517C13.8214 10.4466 14.0492 10.2828 14.3032 10.1706C14.5572 10.0584 14.8318 10.0004 15.1094 10.0001H18.1094C18.5948 9.99532 19.0652 10.1672 19.4332 10.4836C19.8012 10.8001 20.0415 11.2395 20.1094 11.7201C20.2361 12.6802 20.4709 13.6228 20.8094 14.5301C20.944 14.888 20.9731 15.277 20.8934 15.651C20.8136 16.0249 20.6283 16.3682 20.3594 16.6401L19.0894 17.9101C20.513 20.4136 22.5859 22.4865 25.0894 23.9101L26.3594 22.6401C26.6313 22.3712 26.9746 22.1859 27.3486 22.1062C27.7225 22.0264 28.1115 22.0556 28.4694 22.1901C29.3767 22.5286 30.3194 22.7635 31.2794 22.8901C31.7652 22.9586 32.2088 23.2033 32.526 23.5776C32.8431 23.9519 33.0116 24.4297 32.9994 24.9201Z" stroke="white" stroke-width="2" stroke-linecap="round" stroke-linejoin="round"/>
</svg>
