<svg width="46" height="40" viewBox="0 0 46 40" fill="none" xmlns="http://www.w3.org/2000/svg">
<rect x="0.5" width="45" height="40" rx="10" fill="#FFAD0E"/>
<path d="M33.4994 24.9201V27.9201C33.5006 28.1986 33.4435 28.4743 33.332 28.7294C33.2204 28.9846 33.0567 29.2137 32.8515 29.402C32.6463 29.5902 32.404 29.7336 32.1402 29.8228C31.8764 29.912 31.5968 29.9452 31.3194 29.9201C28.2423 29.5857 25.2864 28.5342 22.6894 26.8501C20.2733 25.3148 18.2248 23.2663 16.6894 20.8501C14.9994 18.2413 13.9477 15.2711 13.6194 12.1801C13.5945 11.9036 13.6273 11.6249 13.7159 11.3617C13.8046 11.0986 13.947 10.8568 14.1342 10.6517C14.3214 10.4466 14.5492 10.2828 14.8032 10.1706C15.0572 10.0584 15.3318 10.0004 15.6094 10.0001H18.6094C19.0948 9.99532 19.5652 10.1672 19.9332 10.4836C20.3012 10.8001 20.5415 11.2395 20.6094 11.7201C20.7361 12.6802 20.9709 13.6228 21.3094 14.5301C21.444 14.888 21.4731 15.277 21.3934 15.651C21.3136 16.0249 21.1283 16.3682 20.8594 16.6401L19.5894 17.9101C21.013 20.4136 23.0859 22.4865 25.5894 23.9101L26.8594 22.6401C27.1313 22.3712 27.4746 22.1859 27.8486 22.1062C28.2225 22.0264 28.6115 22.0556 28.9694 22.1901C29.8767 22.5286 30.8194 22.7635 31.7794 22.8901C32.2652 22.9586 32.7088 23.2033 33.026 23.5776C33.3431 23.9519 33.5116 24.4297 33.4994 24.9201Z" stroke="white" stroke-width="2" stroke-linecap="round" stroke-linejoin="round"/>
</svg>
