<svg width="46" height="40" viewBox="0 0 46 40" fill="none" xmlns="http://www.w3.org/2000/svg">
<rect x="0.5" width="45" height="40" rx="10" fill="#FFAD0E"/>
<g clip-path="url(#clip0_115_3317)">
<path d="M31.9015 11.4891C30.8012 10.3786 29.4909 9.49819 28.047 8.89918C26.603 8.30017 25.0543 7.99453 23.491 8.00007C16.9405 8.00007 11.602 13.3371 11.596 19.8891C11.596 21.9876 12.145 24.0291 13.1815 25.8366L11.5 32.0001L17.806 30.3471C19.5505 31.2964 21.5049 31.7941 23.491 31.7946H23.497C30.049 31.7946 35.386 26.4576 35.392 19.8996C35.3935 18.3366 35.0857 16.7889 34.4864 15.3454C33.8871 13.9019 33.0081 12.5913 31.9 11.4891H31.9015ZM23.491 29.7816C21.7195 29.7822 19.9806 29.3055 18.457 28.4016L18.097 28.1856L14.356 29.1666L15.355 25.5171L15.121 25.1406C14.1307 23.5661 13.607 21.7431 13.6105 19.8831C13.6105 14.4441 18.046 10.0071 23.497 10.0071C24.7956 10.0047 26.0818 10.2595 27.2815 10.7566C28.4812 11.2537 29.5706 11.9834 30.487 12.9036C31.4065 13.8201 32.1355 14.9097 32.6319 16.1094C33.1282 17.3091 33.3822 18.5952 33.379 19.8936C33.373 25.3521 28.9375 29.7816 23.491 29.7816ZM28.9135 22.3806C28.618 22.2321 27.1585 21.5136 26.884 21.4116C26.611 21.3141 26.4115 21.2631 26.2165 21.5601C26.017 21.8556 25.447 22.5291 25.276 22.7226C25.105 22.9221 24.928 22.9446 24.631 22.7976C24.3355 22.6476 23.377 22.3356 22.243 21.3201C21.358 20.5326 20.7655 19.5576 20.5885 19.2621C20.4175 18.9651 20.572 18.8061 20.7205 18.6576C20.851 18.5256 21.016 18.3096 21.1645 18.1386C21.3145 17.9676 21.364 17.8416 21.4615 17.6436C21.559 17.4426 21.5125 17.2716 21.439 17.1231C21.364 16.9746 20.7715 15.5091 20.521 14.9181C20.281 14.3346 20.0365 14.4156 19.8535 14.4081C19.6825 14.3976 19.483 14.3976 19.2835 14.3976C19.1328 14.4013 18.9846 14.4362 18.848 14.4999C18.7115 14.5637 18.5896 14.655 18.49 14.7681C18.217 15.0651 17.4535 15.7836 17.4535 17.2491C17.4535 18.7146 18.5185 20.1231 18.6685 20.3226C18.8155 20.5221 20.7595 23.5206 23.743 24.8106C24.448 25.1181 25.003 25.2996 25.4365 25.4376C26.149 25.6656 26.7925 25.6311 27.3055 25.5576C27.8755 25.4706 29.062 24.8376 29.3125 24.1431C29.5585 23.4471 29.5585 22.8531 29.4835 22.7286C29.41 22.6026 29.2105 22.5291 28.9135 22.3806Z" fill="white"/>
</g>
<defs>
<clipPath id="clip0_115_3317">
<rect width="24" height="24" fill="white" transform="translate(11.5 8)"/>
</clipPath>
</defs>
</svg>
