<svg width="45" height="40" viewBox="0 0 45 40" fill="none" xmlns="http://www.w3.org/2000/svg">
<rect width="45" height="40" rx="10" fill="#2ACA10"/>
<g clip-path="url(#clip0_115_3317)">
<path d="M31.4015 11.4891C30.3012 10.3786 28.9909 9.49819 27.547 8.89918C26.103 8.30017 24.5543 7.99453 22.991 8.00007C16.4405 8.00007 11.102 13.3371 11.096 19.8891C11.096 21.9876 11.645 24.0291 12.6815 25.8366L11 32.0001L17.306 30.3471C19.0505 31.2964 21.0049 31.7941 22.991 31.7946H22.997C29.549 31.7946 34.886 26.4576 34.892 19.8996C34.8935 18.3366 34.5857 16.7889 33.9864 15.3454C33.3871 13.9019 32.5081 12.5913 31.4 11.4891H31.4015ZM22.991 29.7816C21.2195 29.7822 19.4806 29.3055 17.957 28.4016L17.597 28.1856L13.856 29.1666L14.855 25.5171L14.621 25.1406C13.6307 23.5661 13.107 21.7431 13.1105 19.8831C13.1105 14.4441 17.546 10.0071 22.997 10.0071C24.2956 10.0047 25.5818 10.2595 26.7815 10.7566C27.9812 11.2537 29.0706 11.9834 29.987 12.9036C30.9065 13.8201 31.6355 14.9097 32.1319 16.1094C32.6282 17.3091 32.8822 18.5952 32.879 19.8936C32.873 25.3521 28.4375 29.7816 22.991 29.7816ZM28.4135 22.3806C28.118 22.2321 26.6585 21.5136 26.384 21.4116C26.111 21.3141 25.9115 21.2631 25.7165 21.5601C25.517 21.8556 24.947 22.5291 24.776 22.7226C24.605 22.9221 24.428 22.9446 24.131 22.7976C23.8355 22.6476 22.877 22.3356 21.743 21.3201C20.858 20.5326 20.2655 19.5576 20.0885 19.2621C19.9175 18.9651 20.072 18.8061 20.2205 18.6576C20.351 18.5256 20.516 18.3096 20.6645 18.1386C20.8145 17.9676 20.864 17.8416 20.9615 17.6436C21.059 17.4426 21.0125 17.2716 20.939 17.1231C20.864 16.9746 20.2715 15.5091 20.021 14.9181C19.781 14.3346 19.5365 14.4156 19.3535 14.4081C19.1825 14.3976 18.983 14.3976 18.7835 14.3976C18.6328 14.4013 18.4846 14.4362 18.348 14.4999C18.2115 14.5637 18.0896 14.655 17.99 14.7681C17.717 15.0651 16.9535 15.7836 16.9535 17.2491C16.9535 18.7146 18.0185 20.1231 18.1685 20.3226C18.3155 20.5221 20.2595 23.5206 23.243 24.8106C23.948 25.1181 24.503 25.2996 24.9365 25.4376C25.649 25.6656 26.2925 25.6311 26.8055 25.5576C27.3755 25.4706 28.562 24.8376 28.8125 24.1431C29.0585 23.4471 29.0585 22.8531 28.9835 22.7286C28.91 22.6026 28.7105 22.5291 28.4135 22.3806Z" fill="white"/>
</g>
<defs>
<clipPath id="clip0_115_3317">
<rect width="24" height="24" fill="white" transform="translate(11 8)"/>
</clipPath>
</defs>
</svg>
