<svg width="20" height="20" viewBox="0 0 20 20" fill="none" xmlns="http://www.w3.org/2000/svg">
<rect width="20" height="20" rx="10" fill="#EFEFEF"/>
<g clip-path="url(#clip0_630_7095)">
<path d="M14.5827 12.9167C14.5827 13.1377 14.4949 13.3496 14.3386 13.5059C14.1823 13.6622 13.9704 13.75 13.7493 13.75H6.24935C6.02834 13.75 5.81637 13.6622 5.66009 13.5059C5.50381 13.3496 5.41602 13.1377 5.41602 12.9167V8.33333C5.41602 8.11232 5.50381 7.90036 5.66009 7.74408C5.81637 7.5878 6.02834 7.5 6.24935 7.5H7.91602L8.74935 6.25H11.2493L12.0827 7.5H13.7493C13.9704 7.5 14.1823 7.5878 14.3386 7.74408C14.4949 7.90036 14.5827 8.11232 14.5827 8.33333V12.9167Z" stroke="#2075F3" stroke-linecap="round" stroke-linejoin="round"/>
<path d="M10.0007 12.0833C10.9211 12.0833 11.6673 11.3371 11.6673 10.4167C11.6673 9.49619 10.9211 8.75 10.0007 8.75C9.08018 8.75 8.33398 9.49619 8.33398 10.4167C8.33398 11.3371 9.08018 12.0833 10.0007 12.0833Z" stroke="#2075F3" stroke-linecap="round" stroke-linejoin="round"/>
</g>
<defs>
<clipPath id="clip0_630_7095">
<rect width="10" height="10" fill="white" transform="translate(5 5)"/>
</clipPath>
</defs>
</svg>
