<svg width="31" height="30" viewBox="0 0 31 30" fill="none" xmlns="http://www.w3.org/2000/svg">
<path d="M16.75 18.25C16.75 17.3072 16.75 16.8358 17.0429 16.5429C17.3358 16.25 17.8072 16.25 18.75 16.25H22.25C23.1928 16.25 23.6642 16.25 23.9571 16.5429C24.25 16.8358 24.25 17.3072 24.25 18.25V21.75C24.25 22.6928 24.25 23.1642 23.9571 23.4571C23.6642 23.75 23.1928 23.75 22.25 23.75H18.75C17.8072 23.75 17.3358 23.75 17.0429 23.4571C16.75 23.1642 16.75 22.6928 16.75 21.75V18.25Z" stroke="#2F82FF" stroke-width="1.5" stroke-linecap="round" stroke-linejoin="round"/>
<path d="M16.75 8.25C16.75 7.30719 16.75 6.83579 17.0429 6.54289C17.3358 6.25 17.8072 6.25 18.75 6.25H22.25C23.1928 6.25 23.6642 6.25 23.9571 6.54289C24.25 6.83579 24.25 7.30719 24.25 8.25V11.75C24.25 12.6928 24.25 13.1642 23.9571 13.4571C23.6642 13.75 23.1928 13.75 22.25 13.75H18.75C17.8072 13.75 17.3358 13.75 17.0429 13.4571C16.75 13.1642 16.75 12.6928 16.75 11.75V8.25Z" stroke="#2F82FF" stroke-width="1.5" stroke-linecap="round" stroke-linejoin="round"/>
<path d="M6.75 18.25C6.75 17.3072 6.75 16.8358 7.04289 16.5429C7.33579 16.25 7.80719 16.25 8.75 16.25H12.25C13.1928 16.25 13.6642 16.25 13.9571 16.5429C14.25 16.8358 14.25 17.3072 14.25 18.25V21.75C14.25 22.6928 14.25 23.1642 13.9571 23.4571C13.6642 23.75 13.1928 23.75 12.25 23.75H8.75C7.80719 23.75 7.33579 23.75 7.04289 23.4571C6.75 23.1642 6.75 22.6928 6.75 21.75V18.25Z" stroke="#2F82FF" stroke-width="1.5" stroke-linecap="round" stroke-linejoin="round"/>
<path d="M6.75 8.25C6.75 7.30719 6.75 6.83579 7.04289 6.54289C7.33579 6.25 7.80719 6.25 8.75 6.25H12.25C13.1928 6.25 13.6642 6.25 13.9571 6.54289C14.25 6.83579 14.25 7.30719 14.25 8.25V11.75C14.25 12.6928 14.25 13.1642 13.9571 13.4571C13.6642 13.75 13.1928 13.75 12.25 13.75H8.75C7.80719 13.75 7.33579 13.75 7.04289 13.4571C6.75 13.1642 6.75 12.6928 6.75 11.75V8.25Z" stroke="#2F82FF" stroke-width="1.5" stroke-linecap="round" stroke-linejoin="round"/>
</svg>
