<svg width="30" height="22" viewBox="0 0 30 22" fill="none" xmlns="http://www.w3.org/2000/svg">
<path d="M14.3134 7.90643C13.9473 7.5403 13.9473 6.94673 14.3134 6.5806C14.6796 6.21446 15.2731 6.21446 15.6392 6.5806L18.7329 9.67424L21.8265 6.5806C22.1925 6.21446 22.7861 6.21446 23.1523 6.5806C23.5184 6.94666 23.5184 7.5403 23.1523 7.90643L20.0586 11L23.1523 14.0936C23.5184 14.4597 23.5184 15.0533 23.1523 15.4194C22.7861 15.7855 22.1925 15.7855 21.8265 15.4194L18.7329 12.3258L15.6392 15.4194C15.2731 15.7855 14.6796 15.7855 14.3135 15.4194C13.9473 15.0533 13.9473 14.4597 14.3135 14.0936L17.4071 11.0001L14.3134 7.90643Z" fill="#2F82FF"/>
<path fill-rule="evenodd" clip-rule="evenodd" d="M10.4471 1.47333L0.92041 11L10.4471 20.5267C11.1504 21.2299 12.1042 21.625 13.0988 21.625H25.9204C27.9915 21.625 29.6704 19.9461 29.6704 17.875V4.125C29.6704 2.05392 27.9915 0.375 25.9204 0.375H13.0988C12.1042 0.375 11.1504 0.770126 10.4471 1.47333ZM25.9204 20H13.0988C12.5351 20 11.9946 19.7761 11.5961 19.3776L3.21854 11L11.5961 2.62239C11.9946 2.22391 12.5351 1.99998 13.0988 1.99998H25.9204C27.094 1.99998 28.0453 2.95137 28.0453 4.125V17.875C28.0453 19.0486 27.094 20 25.9204 20Z" fill="#2F82FF"/>
</svg>
