<svg width="29" height="30" viewBox="0 0 29 30" fill="none" xmlns="http://www.w3.org/2000/svg">
<g clip-path="url(#clip0_259_4721)">
<path d="M19.1992 25.8V23.4C19.1992 22.1269 18.6935 20.906 17.7933 20.0059C16.8932 19.1057 15.6723 18.6 14.3992 18.6H5.99922C4.72618 18.6 3.50528 19.1057 2.60511 20.0059C1.70493 20.906 1.19922 22.1269 1.19922 23.4V25.8" stroke="#2075F3" stroke-width="2" stroke-linecap="round" stroke-linejoin="round"/>
<path d="M10.1984 13.8C12.8494 13.8 14.9984 11.6509 14.9984 8.99995C14.9984 6.34898 12.8494 4.19995 10.1984 4.19995C7.54747 4.19995 5.39844 6.34898 5.39844 8.99995C5.39844 11.6509 7.54747 13.8 10.1984 13.8Z" stroke="#2075F3" stroke-width="2" stroke-linecap="round" stroke-linejoin="round"/>
<path d="M24 10.2V17.4" stroke="#2075F3" stroke-width="2" stroke-linecap="round" stroke-linejoin="round"/>
<path d="M27.5984 13.7999H20.3984" stroke="#2075F3" stroke-width="2" stroke-linecap="round" stroke-linejoin="round"/>
</g>
<defs>
<clipPath id="clip0_259_4721">
<rect width="28.8" height="28.8" fill="white" transform="translate(0 0.599976)"/>
</clipPath>
</defs>
</svg>
